<svg width="23" height="20" fill="none" xmlns="http://www.w3.org/2000/svg"><g filter="url(#a)" fill="#20FF24"><path d="M.747.013h4.327v2.164H.747zM5.074 2.176h4.327V4.34H5.074zM9.401 4.34h4.327v2.164H9.401zM13.728 6.503h4.327v2.164h-4.327zM18.055 8.667h4.327v2.164h-4.327zM13.728 10.83h4.327v2.164h-4.327zM9.401 12.994h4.327v2.164H9.401zM5.074 15.157h4.327v2.164H5.074zM.747 17.321h4.327v2.164H.747zM.747 15.157h4.327v2.164H.747z"/><path d="M.747 12.994h4.327v2.164H.747zM.747 10.83h4.327v2.164H.747z"/><path d="M.747 8.667h4.327v2.164H.747zM.747 6.503h4.327v2.164H.747z"/><path d="M.747 4.34h4.327v2.164H.747zM.747 2.176h4.327V4.34H.747zM5.074 4.34h4.327v2.164H5.074z"/><path d="M5.074 6.503h4.327v2.164H5.074zM9.401 6.503h4.327v2.164H9.401zM13.728 8.667h4.327v2.164h-4.327zM9.401 8.667h4.327v2.164H9.401zM5.074 8.667h4.327v2.164H5.074z"/><path d="M9.401 10.83h4.327v2.164H9.401zM5.074 10.83h4.327v2.164H5.074zM5.074 12.994h4.327v2.164H5.074z"/></g><defs><filter id="a" x=".747" y=".013" width="21.635" height="19.472" filterUnits="userSpaceOnUse" color-interpolation-filters="sRGB"><feFlood flood-opacity="0" result="BackgroundImageFix"/><feBlend in="SourceGraphic" in2="BackgroundImageFix" result="shape"/><feColorMatrix in="SourceAlpha" values="0 0 0 0 0 0 0 0 0 0 0 0 0 0 0 0 0 0 127 0" result="hardAlpha"/><feOffset dx="2.164" dy="3.245"/><feComposite in2="hardAlpha" operator="arithmetic" k2="-1" k3="1"/><feColorMatrix values="0 0 0 0 0.651676 0 0 0 0 1 0 0 0 0 0.657924 0 0 0 1 0"/><feBlend in2="shape" result="effect1_innerShadow_301_6233"/><feColorMatrix in="SourceAlpha" values="0 0 0 0 0 0 0 0 0 0 0 0 0 0 0 0 0 0 127 0" result="hardAlpha"/><feOffset dx="-2.164" dy="-2.164"/><feComposite in2="hardAlpha" operator="arithmetic" k2="-1" k3="1"/><feColorMatrix values="0 0 0 0 0.0902502 0 0 0 0 0.371224 0 0 0 0 0.0952901 0 0 0 1 0"/><feBlend in2="effect1_innerShadow_301_6233" result="effect2_innerShadow_301_6233"/></filter></defs></svg>